<?xml version="1.0" encoding="iso-8859-1"?>
<!-- Generator: Adobe Illustrator 19.0.0, SVG Export Plug-In . SVG Version: 6.00 Build 0)  -->
<svg version="1.1" id="Capa_1" xmlns="http://www.w3.org/2000/svg" xmlns:xlink="http://www.w3.org/1999/xlink" x="0px" y="0px"
	 viewBox="0 0 512.003 512.003" style="enable-background:new 0 0 512.003 512.003;" xml:space="preserve">
<g>
	<path style="fill:#84B5CB;" d="M172.139,435.288v45.815c-0.082,17.03-13.867,30.815-30.897,30.897
		c-17.056-0.019-30.878-13.841-30.897-30.897V379.586c0.794,1.324,1.677,2.56,2.56,3.796c0.706,1.059,1.412,2.119,2.207,3.09
		c0.168,0.19,0.316,0.398,0.442,0.618c0.794,1.059,1.589,2.119,2.472,3.178c0.925,1.295,1.927,2.534,3.001,3.708
		c0.548,0.765,1.169,1.475,1.854,2.119c0.243,0.314,0.508,0.609,0.794,0.883c0.441,0.618,0.971,1.148,1.501,1.766v0.088l0.088,0.088
		l0.706,0.706c0.177,0.265,0.441,0.441,0.618,0.706c0.088,0.088,0.177,0.088,0.177,0.177c0.387,0.492,0.799,0.964,1.236,1.412
		c1.677,1.854,3.443,3.619,5.297,5.297c0.251,0.31,0.549,0.578,0.883,0.794l0.706,0.706c0,0.088,0.088,0.177,0.177,0.088
		c0.441,0.53,0.971,0.971,1.412,1.412c1.329,1.328,2.744,2.567,4.237,3.708c0.256,0.181,0.493,0.388,0.706,0.618
		c0.104,0.163,0.259,0.287,0.441,0.353c2.295,1.854,4.59,3.708,6.974,5.561l0.088,0.088c2.383,1.766,4.767,3.443,7.15,5.032
		c0.088,0,0.088,0,0.088,0.088c2.383,1.589,4.855,3.09,7.239,4.59c0.155,0.147,0.334,0.267,0.53,0.353
		c1.324,0.794,2.648,1.589,4.061,2.383h0.088c0.559,0.375,1.149,0.7,1.766,0.971c0.135,0.108,0.283,0.197,0.441,0.265
		c0.607,0.29,1.196,0.614,1.766,0.971c0,0.023,0.009,0.046,0.026,0.062C172.093,435.28,172.116,435.289,172.139,435.288z"/>
	<path style="fill:#D75E72;" d="M373.673,231.283c1.079-3.425,1.586-7.004,1.501-10.593c0-26.483-26.483-61.793-52.966-61.793
		l4.061-52.966c3.025-8.508,4.635-17.454,4.767-26.483c0-20.657-16.154-41.225-44.138-49.346V17.655
		C286.898,7.905,278.994,0,269.243,0c-9.751,0-17.655,7.904-17.655,17.655v9.269c-7.724,0.586-15.314,2.343-22.51,5.208
		l-7.68-19.244c-2.891-7.251-10.958-10.965-18.347-8.447s-11.51,10.385-9.371,17.893l8.386,29.308
		c-25.159,29.308-29.661,78.036-29.926,113.523v19.068c-5.65-2.119-11.564-4.679-17.655-7.68c-0.727-0.385-1.498-0.681-2.295-0.883
		c-0.088,0-0.088,0.088-0.177,0.088c-9.181-2.56-26.041,2.03-41.666,17.479v-0.177c-18.538,18.361-35.31,51.906-35.31,107.079
		c0,105.931,17.655,88.276,17.655,88.276c1.241,0.006,2.48-0.082,3.708-0.265c3.774,9.402,8.444,18.418,13.948,26.924
		c2.182,3.358,4.539,6.6,7.062,9.71c0.126,0.22,0.274,0.427,0.441,0.618c0,0.088,0.088,0.177,0.177,0.265
		c0.088,0.088,0.088,0.177,0.265,0.265c0.706,0.971,1.501,1.942,2.295,2.913c0.176,0.184,0.324,0.392,0.442,0.618l1.854,2.119
		c0.243,0.314,0.508,0.609,0.794,0.883c0.441,0.618,0.971,1.148,1.501,1.765v0.088l0.088,0.088c0.265,0.353,0.618,0.618,0.883,0.971
		c0.188,0.099,0.342,0.253,0.442,0.441h0.088c0,0.088,0.088,0.088,0.088,0.177c0.404,0.36,0.787,0.743,1.148,1.148l0.088,0.088
		v0.088l1.236,1.236c1.324,1.412,2.737,2.825,4.061,4.149c0.53,0.53,1.059,0.971,1.589,1.501c0.53,0.53,1.059,0.971,1.589,1.501
		c1.329,1.328,2.744,2.567,4.237,3.708c0.256,0.181,0.493,0.388,0.706,0.618c0.104,0.163,0.259,0.287,0.441,0.353
		c2.295,1.854,4.59,3.708,6.974,5.561l0.088,0.088c2.383,1.766,4.767,3.443,7.15,5.032c0.088,0,0.088,0,0.088,0.088
		c2.383,1.589,4.855,3.09,7.239,4.59c0.155,0.147,0.334,0.267,0.53,0.353c1.324,0.794,2.648,1.589,4.061,2.383h0.088
		c0.559,0.375,1.149,0.7,1.766,0.971c0.135,0.108,0.283,0.197,0.441,0.265c0.607,0.29,1.196,0.614,1.766,0.971
		c0,0.023,0.009,0.046,0.026,0.062c0.017,0.016,0.039,0.025,0.063,0.025v10.328c-0.033,14.906,10.605,27.701,25.267,30.391
		s29.148-5.497,34.408-19.444c6.511,1.347,13.128,2.115,19.774,2.295c18.186-0.058,36.336,1.627,54.201,5.032
		c6.179,1.235,11.829,2.472,17.302,3.796c16.952,4.984,34.435,7.947,52.083,8.828c26.483,0,61.793-17.655,61.793-97.103
		C436.967,368.552,412.956,289.368,373.673,231.283z M199.681,271.007v-0.088h0.088L199.681,271.007z M330.771,246.466
		c-0.596-0.075-1.186-0.193-1.766-0.353c0.618,0.088,1.148,0.177,1.766,0.265V246.466z"/>
	<path style="fill:#CC4B4C;" d="M331.036,79.448c-0.132,9.029-1.742,17.975-4.767,26.483c-1.677,0-3.354,0-5.032,0.088h-2.472
		c-0.883,0-1.766,0-2.648,0.088c-1.412,0-2.913,0.088-4.414,0.177c-1.412,0.088-2.737,0.177-4.149,0.353
		c-1.236,0.088-2.472,0.177-3.708,0.353c-5.937,0.641-11.793,1.884-17.479,3.708c-1.409,0.391-2.794,0.863-4.149,1.412
		c-0.332,0.092-0.657,0.21-0.971,0.353c-1.677,0.618-3.178,1.324-4.855,2.119c-0.441,0.177-0.971,0.441-1.501,0.706
		c-1.183,0.549-2.333,1.168-3.443,1.854c-1.186,0.642-2.336,1.349-3.443,2.119c-1.427,0.799-2.785,1.714-4.061,2.737
		c-4.437,3.077-8.575,6.564-12.359,10.417c-1.324,1.324-2.737,2.737-3.972,4.149c-0.227,0.183-0.435,0.391-0.618,0.618
		c-2.119,2.295-4.149,4.59-6.003,6.886c-1.412,1.589-2.648,3.178-3.884,4.767c-1.148,1.412-2.207,2.825-3.178,4.237
		c-1.059,1.412-2.119,2.825-3.09,4.237c-1.942,2.825-3.708,5.649-5.385,8.386c-0.883,1.324-1.677,2.737-2.383,4.061
		c0,0.088-0.088,0.177-0.177,0.265c-0.201,0.459-0.437,0.902-0.706,1.324c-1.766,3.531-3.354,6.886-4.679,10.063
		c-0.475,1.094-0.888,2.214-1.236,3.354c-0.772,2.154-1.362,4.369-1.766,6.621c-0.226,0.928-0.374,1.872-0.441,2.825l2.207,17.655
		c-0.794-0.353-18.185-18.273-19.068-18.626c-0.353-0.088-0.794-0.265-1.148-0.353l-2.119-0.794
		c-6.091-2.119-12.888-4.414-20.127-7.15c-0.133-0.022-0.256-0.083-0.353-0.177c-0.088,0-0.265-0.088-0.353-0.088
		c-0.331-0.13-0.655-0.278-0.971-0.441v-19.068c0.265-35.487,4.767-84.215,29.926-113.523l-8.386-29.308
		c-2.138-7.508,1.982-15.375,9.371-17.893s15.456,1.196,18.347,8.447l7.68,19.244c7.196-2.866,14.786-4.622,22.51-5.208v-9.269
		C251.588,7.905,259.492,0,269.243,0c9.751,0,17.655,7.904,17.655,17.655v12.447C314.882,38.223,331.036,58.792,331.036,79.448z"/>
	<g>
		<path style="fill:#84B5CB;" d="M110.346,193.059V70.621c0-21.186-12.712-42.372-22.863-55.967
			c-2.117-2.752-2.485-6.469-0.947-9.582c1.538-3.113,4.713-5.08,8.185-5.071h34.604c11.63,0.024,22.364,6.249,28.16,16.331
			c9.593,16.485,14.649,35.217,14.654,54.29v123.586L110.346,193.059z"/>
		<path style="fill:#84B5CB;" d="M384.796,134.621c-0.068,6.246-2.794,12.167-7.496,16.279c-4.702,4.112-10.933,6.025-17.133,5.26
			c-12.67-2.503-25.779-1.558-37.959,2.737l0.177,0.883l0.265,1.412l0.265,1.412l0.883,5.914c0.401,3.251,0.608,6.523,0.618,9.799
			v1.501c0.015,0.385-0.015,0.77-0.088,1.148v0.971c0,0.53-0.088,0.971-0.088,1.501c-0.015,0.621-0.074,1.241-0.177,1.854
			c-0.088,1.148-0.177,2.383-0.353,3.619c-0.088,0.618-0.177,1.236-0.265,1.766v0.088c-0.353,1.766-0.706,3.443-1.148,5.208
			l-0.265,0.53c-0.437,1.561-0.967,3.094-1.589,4.59c-0.181,0.524-0.418,1.027-0.706,1.501c-0.353,0.618-0.618,1.236-0.971,1.854
			c-0.353,0.618-0.618,1.148-0.971,1.677c-0.209,0.519-0.508,0.997-0.883,1.412l-0.53,0.794c-0.177,0.177-0.265,0.265-0.265,0.353
			l-0.265,0.265c-0.754,1.028-1.58,2.002-2.472,2.913c-0.667,0.661-1.287,1.369-1.854,2.119c-0.225,0.159-0.407,0.371-0.53,0.618
			l-0.265,0.265c-0.668,0.796-1.259,1.653-1.766,2.56c-0.022,0.133-0.083,0.256-0.177,0.353
			c-13.081,2.048-26.308,3.022-39.548,2.913c-1.677,0-3.531-0.088-5.385-0.265c-9.607-0.911-19.049-3.108-28.072-6.532
			c-1.236-0.441-2.383-0.883-3.531-1.412c-1.236-0.53-2.472-1.059-3.619-1.589c-0.545-0.199-1.076-0.434-1.589-0.706
			c-2.24-1.121-4.421-2.359-6.532-3.708c-0.088-0.088-0.088-0.088-0.177-0.088v-0.088h-0.088v-0.088
			c-1.49-1.807-3.211-3.41-5.12-4.767l-0.088-0.088c-0.964-2.252-1.3-4.723-0.971-7.15h0.088c0.088-0.883,0.177-1.854,0.353-2.825
			c0.403-2.252,0.994-4.467,1.766-6.621c0.348-1.141,0.761-2.261,1.236-3.354c1.324-3.178,2.913-6.532,4.679-10.063
			c0.269-0.422,0.506-0.865,0.706-1.324c0.088-0.088,0.177-0.177,0.177-0.265c0.706-1.324,1.501-2.737,2.383-4.061
			c1.677-2.737,3.443-5.561,5.385-8.386c0.971-1.412,2.03-2.825,3.09-4.237c0.971-1.412,2.03-2.825,3.178-4.237
			c1.236-1.589,2.472-3.178,3.884-4.767c1.854-2.295,3.884-4.59,6.003-6.886c0.183-0.227,0.391-0.435,0.618-0.618
			c1.236-1.412,2.648-2.825,3.972-4.149c3.783-3.852,7.921-7.34,12.359-10.417c1.297-0.993,2.653-1.907,4.061-2.737
			c1.107-0.77,2.257-1.477,3.443-2.119c1.11-0.686,2.259-1.305,3.443-1.854c0.53-0.265,1.059-0.53,1.501-0.706
			c1.677-0.794,3.178-1.501,4.855-2.119c0.314-0.143,0.639-0.261,0.971-0.353c1.355-0.55,2.74-1.021,4.149-1.412
			c5.686-1.824,11.542-3.066,17.479-3.708c1.236-0.177,2.472-0.265,3.708-0.353c1.412-0.177,2.737-0.265,4.149-0.353
			c1.501-0.088,3.001-0.177,4.414-0.177c0.883-0.088,1.766-0.088,2.648-0.088h2.472c1.677-0.088,3.354-0.088,5.032-0.088h4.767
			c13.415,0.661,26.642,3.432,39.194,8.21C378.908,117.227,384.728,125.411,384.796,134.621z"/>
	</g>
	<path style="fill:#CC4B4C;" d="M231.814,492.05c-5.26,13.948-19.746,22.134-34.408,19.444s-25.299-15.484-25.267-30.391l0-10.328
		c2.648,1.501,5.385,2.913,8.121,4.149h0.088c5.28,2.626,10.702,4.955,16.243,6.974l0.088,0.088c2.56,0.971,5.12,1.942,7.68,2.737
		c2.472,0.883,5.031,1.677,7.415,2.383c2.207,0.706,4.326,1.324,6.444,1.854c0.618,0.177,1.236,0.265,1.766,0.441
		c1.942,0.53,3.796,0.971,5.65,1.324C227.753,491.255,229.872,491.697,231.814,492.05z"/>
	<g>
		<path style="fill:#802D40;" d="M410.484,450.207c-0.015,4.869-3.958,8.813-8.828,8.828c-4.798-0.357-9.337-2.316-12.888-5.561
			c-1.634,4.39-4.125,8.411-7.327,11.829c-3.481,3.414-9.054,3.414-12.535,0c-3.443-3.469-3.443-9.066,0-12.535
			c3.846-5.233,6.001-11.516,6.179-18.008c-5.238-7.916-11.67-14.974-19.068-20.921c-3.842,17.756-10.047,34.917-18.45,51.023
			c-6.482,12.082-11.35,24.962-14.477,38.312c-5.473-1.324-11.123-2.56-17.302-3.796c3.455-14.651,8.765-28.801,15.801-42.108
			c9.004-18.979,18.273-38.665,18.273-60.028c-1.168-11.16-5.314-21.801-12.006-30.808c-2.03-3.443-4.237-7.062-6.268-10.858
			c-5.626,8.98-15.281,14.648-25.865,15.183c-4.875,0-8.828-3.952-8.828-8.828s3.952-8.828,8.828-8.828
			c9.357,0,16.596-15.89,18.097-20.303c-0.282-2.048-0.429-4.112-0.441-6.179c0-24.806,14.036-69.738,17.39-80.154
			c0.353-1.148,0.618-1.854,0.706-2.119c1.354-4.03,5.384-6.525,9.595-5.942c4.211,0.583,7.411,4.08,7.619,8.326
			c0.033,1.106-0.116,2.209-0.441,3.266c-0.088,0.265-4.502,13.594-8.916,30.014c0.088,0.265,0.265,0.441,0.353,0.706
			c0.088,0.441,8.298,38.841,37.606,46.168c20.833,5.208,31.338,28.955,32.486,31.603c0.933,2.152,0.962,4.588,0.083,6.762
			c-0.88,2.174-2.595,3.904-4.761,4.802c-1.094,0.445-2.261,0.685-3.443,0.706c-3.544,0.001-6.743-2.12-8.121-5.385
			c-2.207-5.032-10.063-18.714-20.48-21.363c-17.552-4.966-32.237-17.027-40.519-33.28c-0.877,5.254-1.378,10.564-1.501,15.89
			c1.168,11.16,5.314,21.801,12.006,30.808c7.289,10.477,12.145,22.451,14.212,35.046c13.929,9.487,25.716,21.786,34.604,36.105
			c5.385,10.681,9.887,12.623,10.593,12.8C406.997,441.826,410.467,445.64,410.484,450.207z"/>
		<path style="fill:#802D40;" d="M242.911,300.147c-7.702-3.655-14.622-8.77-20.377-15.059l-0.016-0.019
			c-4.047-4.052-6.224-19.491-6.241-29.078c-0.007-4.871-3.956-8.817-8.828-8.819h-0.009c-4.871,0.007-8.816,3.957-8.819,8.828
			c0,5.034,0.552,30.69,11.414,41.551c4.14,5.931,6.322,13.009,6.241,20.242c0,4.875,3.952,8.828,8.828,8.828
			s8.828-3.952,8.828-8.828c0-0.338-0.026-1.198-0.08-2.269c2.779,1.369,5.813,2.142,8.908,2.269
			c4.891,0.008,8.87-3.937,8.905-8.828c0.015-2.332-0.9-4.575-2.543-6.23C247.479,301.08,245.243,300.149,242.911,300.147z"/>
		<path style="fill:#802D40;" d="M198.631,353.103c-6.117,0.104-12.212-0.772-18.052-2.595l-0.072-0.147
			c-1.564-17.645-4.449-35.148-8.63-52.362c-1.204-4.703-5.98-7.551-10.69-6.375c-4.71,1.176-7.587,5.934-6.44,10.651
			c4.81,19.555,7.678,39.537,8.564,59.656c-1.141,17.479,7.548,34.139,22.534,43.207c1.211,0.607,2.547,0.923,3.901,0.922
			c4.053-0.018,7.576-2.79,8.547-6.725c0.972-3.935-0.856-8.027-4.435-9.93c-6.891-4.579-11.394-11.98-12.293-20.204
			c5.619,1.089,11.333,1.61,17.056,1.557c4.875,0.002,8.83-3.948,8.832-8.823C207.457,357.06,203.506,353.106,198.631,353.103z"/>
		<path style="fill:#802D40;" d="M225.105,220.69c0,44.138-79.448,97.103-97.103,114.759c-2.148,2.183-3.99,4.648-5.473,7.327
			c-0.8,1.319-1.479,2.708-2.03,4.149c-2.584,6.463-4.708,13.1-6.356,19.862c-0.441,1.589-0.971,3.178-1.501,4.679
			c-0.078,0.365-0.196,0.721-0.353,1.059v0.088c-0.088,0.353-0.265,0.706-0.353,0.971c-0.51,1.457-1.13,2.873-1.854,4.237
			c-0.618,1.059-1.236,2.03-1.854,3.001c-0.665,0.939-1.403,1.825-2.207,2.648c-0.803,0.801-1.691,1.511-2.648,2.119
			c-1.554,0.968-3.253,1.683-5.032,2.119c-0.637,0.168-1.286,0.286-1.942,0.353v0.088c-1.227,0.182-2.467,0.271-3.708,0.264
			c0,0-17.655,17.655-17.655-88.276c0-55.172,16.772-88.717,35.31-107.079v0.177c15.625-15.448,32.486-20.039,41.666-17.479
			c0.088,0,0.088-0.088,0.177-0.088c0.798,0.201,1.568,0.498,2.295,0.883c6.091,3.001,12.006,5.561,17.655,7.68v0.088
			c0.353,0.088,0.618,0.265,0.971,0.353c0.088,0,0.265,0.088,0.353,0.088c0.097,0.093,0.22,0.155,0.353,0.177
			c7.239,2.737,14.036,5.032,20.127,7.15l2.119,0.794c0.353,0.088,0.794,0.265,1.148,0.353c0.883,0.353,1.766,0.617,2.56,0.971
			h0.088c5.308,1.819,10.4,4.216,15.183,7.15l0.088,0.088c1.909,1.357,3.63,2.96,5.12,4.767v0.088l0.088,0.088
			c0.618,0.883,1.324,1.766,1.942,2.737c0.088,0.088,0.088,0.177,0.177,0.265c0.576,1.009,1.049,2.074,1.412,3.178
			c0.429,1.23,0.725,2.503,0.883,3.796C225.008,217.792,225.126,219.24,225.105,220.69z"/>
		<path style="fill:#802D40;" d="M375.174,220.69c0.085,3.59-0.422,7.168-1.501,10.593c-0.265,0.618-0.441,1.236-0.706,1.854
			c-0.693,1.743-1.678,3.355-2.913,4.767c-0.53,0.618-1.059,1.148-1.589,1.677c-0.446,0.533-0.984,0.982-1.589,1.324
			c-1.799,1.303-3.757,2.371-5.826,3.178c-0.756,0.37-1.557,0.637-2.383,0.794c-0.838,0.287-1.693,0.523-2.56,0.706
			c-2.356,0.539-4.744,0.922-7.15,1.148c-0.849,0.106-1.704,0.164-2.56,0.177c-0.883,0.088-1.854,0.177-2.825,0.177
			c-1.148,0.088-2.472,0.088-3.708,0.088c-10.138,0.477-20.098-2.791-27.983-9.181c-0.618-0.53-1.148-1.148-1.677-1.677
			c-0.966-1.167-1.795-2.441-2.472-3.796c-0.265-0.618-0.53-1.324-0.794-2.03c-0.24-0.653-0.388-1.336-0.441-2.03
			c-0.102-0.672-0.161-1.35-0.177-2.03c-0.025-0.74,0.034-1.48,0.177-2.207c0.062-0.721,0.21-1.433,0.441-2.119
			c0.177-0.53,0.353-0.971,0.53-1.501c0.072-0.213,0.161-0.419,0.265-0.618c0.263-0.776,0.619-1.517,1.059-2.207
			c0.093-0.097,0.155-0.22,0.177-0.353c0.507-0.907,1.098-1.764,1.766-2.56l0.265-0.265c0.122-0.247,0.305-0.459,0.53-0.618
			c0.567-0.749,1.186-1.457,1.854-2.119c0.892-0.911,1.718-1.885,2.472-2.913l0.265-0.265c0-0.088,0.088-0.177,0.265-0.353
			l0.53-0.794c0.375-0.415,0.674-0.893,0.883-1.412c0.353-0.53,0.618-1.059,0.971-1.677c0.353-0.618,0.618-1.236,0.971-1.854
			c0.288-0.474,0.525-0.977,0.706-1.501c0.622-1.497,1.152-3.03,1.589-4.59l0.265-0.53c0.441-1.766,0.794-3.443,1.148-5.208v-0.088
			c0.088-0.53,0.177-1.148,0.265-1.766c0.177-1.235,0.265-2.472,0.353-3.619c0.102-0.613,0.161-1.232,0.177-1.854
			c0-0.53,0.088-0.971,0.088-1.501v-0.971c0.073-0.378,0.103-0.763,0.088-1.148v-1.501c-0.01-3.276-0.217-6.548-0.618-9.799
			c-0.265-2.295-0.618-4.326-0.883-5.914l-0.265-1.412l-0.265-1.412l-0.177-0.883C348.691,158.897,375.174,194.207,375.174,220.69z"
			/>
	</g>
</g>
<g>
</g>
<g>
</g>
<g>
</g>
<g>
</g>
<g>
</g>
<g>
</g>
<g>
</g>
<g>
</g>
<g>
</g>
<g>
</g>
<g>
</g>
<g>
</g>
<g>
</g>
<g>
</g>
<g>
</g>
</svg>
